<mxfile modified="2024-06-03T09:04:55.020Z" host="app.diagrams.net" agent="Mozilla/5.0 (X11; Linux x86_64) AppleWebKit/537.36 (KHTML, like Gecko) Chrome/125.0.0.0 Safari/537.36" etag="vs_PO352W7IFnPxPICNt" version="24.4.7" type="device">
  <diagram id="Ht1M8jgEwFfnCIfOTk4-" name="Page-1">
    <mxGraphModel dx="2353" dy="1224" grid="1" gridSize="10" guides="1" tooltips="1" connect="1" arrows="1" fold="1" page="1" pageScale="1" pageWidth="827" pageHeight="1169" math="0" shadow="0">
      <root>
        <mxCell id="0" />
        <mxCell id="1" parent="0" />
        <mxCell id="OvrC1PLos7UP8C3GgJW_-5" value="&lt;font style=&quot;font-size: 14px;&quot;&gt;&amp;nbsp; eu-west-2a&lt;/font&gt;" style="fillColor=none;strokeColor=#147EBA;dashed=1;verticalAlign=top;fontStyle=0;fontColor=#147EBA;whiteSpace=wrap;html=1;align=left;" vertex="1" parent="1">
          <mxGeometry x="454" y="90" width="1200" height="290" as="geometry" />
        </mxCell>
        <mxCell id="OvrC1PLos7UP8C3GgJW_-2" value="&lt;span style=&quot;font-size: 14px;&quot;&gt;&amp;nbsp;Kubernetes-Self-Managed-Cluster-VPC&lt;/span&gt;&lt;div&gt;&lt;span style=&quot;font-size: 14px;&quot;&gt;168.1.0.0/16&lt;/span&gt;&lt;/div&gt;" style="sketch=0;outlineConnect=0;html=1;whiteSpace=wrap;fontSize=12;fontStyle=0;shape=mxgraph.aws4.group;grIcon=mxgraph.aws4.group_vpc;strokeColor=#82b366;fillColor=none;verticalAlign=top;align=left;spacingLeft=30;dashed=0;" vertex="1" parent="1">
          <mxGeometry x="220" y="30" width="1500" height="1070" as="geometry" />
        </mxCell>
        <mxCell id="OvrC1PLos7UP8C3GgJW_-39" style="edgeStyle=orthogonalEdgeStyle;rounded=0;orthogonalLoop=1;jettySize=auto;html=1;dashed=1;endArrow=classic;endFill=1;startArrow=classic;startFill=1;" edge="1" parent="1" source="OvrC1PLos7UP8C3GgJW_-8" target="OvrC1PLos7UP8C3GgJW_-36">
          <mxGeometry relative="1" as="geometry" />
        </mxCell>
        <mxCell id="OvrC1PLos7UP8C3GgJW_-8" value="kubernetes-public-subnet-A&amp;nbsp;&lt;div&gt;168.1.0.0/24&lt;/div&gt;" style="points=[[0,0],[0.25,0],[0.5,0],[0.75,0],[1,0],[1,0.25],[1,0.5],[1,0.75],[1,1],[0.75,1],[0.5,1],[0.25,1],[0,1],[0,0.75],[0,0.5],[0,0.25]];outlineConnect=0;gradientColor=none;html=1;whiteSpace=wrap;fontSize=12;fontStyle=0;container=1;pointerEvents=0;collapsible=0;recursiveResize=0;shape=mxgraph.aws4.group;grIcon=mxgraph.aws4.group_security_group;grStroke=0;strokeColor=#248814;fillColor=#E9F3E6;verticalAlign=top;align=left;spacingLeft=30;fontColor=#248814;dashed=0;shadow=1;" vertex="1" parent="1">
          <mxGeometry x="494" y="120" width="560" height="240" as="geometry" />
        </mxCell>
        <mxCell id="OvrC1PLos7UP8C3GgJW_-48" value="" style="sketch=0;outlineConnect=0;fontColor=#232F3E;gradientColor=none;fillColor=#8C4FFF;strokeColor=none;dashed=0;verticalLabelPosition=bottom;verticalAlign=top;align=center;html=1;fontSize=12;fontStyle=0;aspect=fixed;pointerEvents=1;shape=mxgraph.aws4.nat_gateway;" vertex="1" parent="OvrC1PLos7UP8C3GgJW_-8">
          <mxGeometry x="46" y="76" width="78" height="78" as="geometry" />
        </mxCell>
        <mxCell id="OvrC1PLos7UP8C3GgJW_-20" value="Jira-Dev-Private-A&lt;div&gt;168.1.3.0/24&lt;/div&gt;" style="points=[[0,0],[0.25,0],[0.5,0],[0.75,0],[1,0],[1,0.25],[1,0.5],[1,0.75],[1,1],[0.75,1],[0.5,1],[0.25,1],[0,1],[0,0.75],[0,0.5],[0,0.25]];outlineConnect=0;gradientColor=none;html=1;whiteSpace=wrap;fontSize=12;fontStyle=0;container=1;pointerEvents=0;collapsible=0;recursiveResize=0;shape=mxgraph.aws4.group;grIcon=mxgraph.aws4.group_security_group;grStroke=0;strokeColor=#147EBA;fillColor=#E6F2F8;verticalAlign=top;align=left;spacingLeft=30;fontColor=#147EBA;dashed=0;shadow=1;" vertex="1" parent="1">
          <mxGeometry x="1080" y="115" width="560" height="240" as="geometry" />
        </mxCell>
        <mxCell id="OvrC1PLos7UP8C3GgJW_-41" style="edgeStyle=orthogonalEdgeStyle;rounded=0;orthogonalLoop=1;jettySize=auto;html=1;dashed=1;endArrow=classic;endFill=1;startArrow=classic;startFill=1;" edge="1" parent="1" source="OvrC1PLos7UP8C3GgJW_-24" target="OvrC1PLos7UP8C3GgJW_-36">
          <mxGeometry relative="1" as="geometry" />
        </mxCell>
        <mxCell id="OvrC1PLos7UP8C3GgJW_-23" value="&lt;font style=&quot;font-size: 14px;&quot;&gt;&amp;nbsp; eu-west-2b&lt;/font&gt;" style="fillColor=none;strokeColor=#147EBA;dashed=1;verticalAlign=top;fontStyle=0;fontColor=#147EBA;whiteSpace=wrap;html=1;align=left;" vertex="1" parent="1">
          <mxGeometry x="454" y="420" width="1200" height="290" as="geometry" />
        </mxCell>
        <mxCell id="OvrC1PLos7UP8C3GgJW_-24" value="Jira-Dev-Public-B&lt;div&gt;168.1.1.0/24&lt;/div&gt;" style="points=[[0,0],[0.25,0],[0.5,0],[0.75,0],[1,0],[1,0.25],[1,0.5],[1,0.75],[1,1],[0.75,1],[0.5,1],[0.25,1],[0,1],[0,0.75],[0,0.5],[0,0.25]];outlineConnect=0;gradientColor=none;html=1;whiteSpace=wrap;fontSize=12;fontStyle=0;container=1;pointerEvents=0;collapsible=0;recursiveResize=0;shape=mxgraph.aws4.group;grIcon=mxgraph.aws4.group_security_group;grStroke=0;strokeColor=#248814;fillColor=#E9F3E6;verticalAlign=top;align=left;spacingLeft=30;fontColor=#248814;dashed=0;shadow=1;" vertex="1" parent="1">
          <mxGeometry x="494" y="450" width="560" height="240" as="geometry" />
        </mxCell>
        <mxCell id="OvrC1PLos7UP8C3GgJW_-49" value="" style="sketch=0;outlineConnect=0;fontColor=#232F3E;gradientColor=none;fillColor=#8C4FFF;strokeColor=none;dashed=0;verticalLabelPosition=bottom;verticalAlign=top;align=center;html=1;fontSize=12;fontStyle=0;aspect=fixed;pointerEvents=1;shape=mxgraph.aws4.nat_gateway;" vertex="1" parent="OvrC1PLos7UP8C3GgJW_-24">
          <mxGeometry x="46" y="86" width="78" height="78" as="geometry" />
        </mxCell>
        <mxCell id="OvrC1PLos7UP8C3GgJW_-25" value="Jira-Dev-Private-B&lt;div&gt;168.1.4.0/24&lt;/div&gt;" style="points=[[0,0],[0.25,0],[0.5,0],[0.75,0],[1,0],[1,0.25],[1,0.5],[1,0.75],[1,1],[0.75,1],[0.5,1],[0.25,1],[0,1],[0,0.75],[0,0.5],[0,0.25]];outlineConnect=0;gradientColor=none;html=1;whiteSpace=wrap;fontSize=12;fontStyle=0;container=1;pointerEvents=0;collapsible=0;recursiveResize=0;shape=mxgraph.aws4.group;grIcon=mxgraph.aws4.group_security_group;grStroke=0;strokeColor=#147EBA;fillColor=#E6F2F8;verticalAlign=top;align=left;spacingLeft=30;fontColor=#147EBA;dashed=0;shadow=1;" vertex="1" parent="1">
          <mxGeometry x="1080" y="445" width="560" height="240" as="geometry" />
        </mxCell>
        <mxCell id="OvrC1PLos7UP8C3GgJW_-52" value="" style="sketch=0;outlineConnect=0;fontColor=#232F3E;gradientColor=none;fillColor=#8C4FFF;strokeColor=none;dashed=0;verticalLabelPosition=bottom;verticalAlign=top;align=center;html=1;fontSize=12;fontStyle=0;aspect=fixed;pointerEvents=1;shape=mxgraph.aws4.route_table;" vertex="1" parent="OvrC1PLos7UP8C3GgJW_-25">
          <mxGeometry x="40" y="82" width="78" height="76" as="geometry" />
        </mxCell>
        <mxCell id="OvrC1PLos7UP8C3GgJW_-43" style="edgeStyle=orthogonalEdgeStyle;rounded=0;orthogonalLoop=1;jettySize=auto;html=1;dashed=1;endArrow=classic;endFill=1;startArrow=classic;startFill=1;" edge="1" parent="1" source="OvrC1PLos7UP8C3GgJW_-27" target="OvrC1PLos7UP8C3GgJW_-36">
          <mxGeometry relative="1" as="geometry" />
        </mxCell>
        <mxCell id="OvrC1PLos7UP8C3GgJW_-26" value="&lt;font style=&quot;font-size: 14px;&quot;&gt;&amp;nbsp; eu-west-2c&lt;/font&gt;" style="fillColor=none;strokeColor=#147EBA;dashed=1;verticalAlign=top;fontStyle=0;fontColor=#147EBA;whiteSpace=wrap;html=1;align=left;" vertex="1" parent="1">
          <mxGeometry x="454" y="760" width="1200" height="290" as="geometry" />
        </mxCell>
        <mxCell id="OvrC1PLos7UP8C3GgJW_-27" value="Jira-Dev-Public-C&lt;div&gt;168.1.2.0/24&lt;/div&gt;" style="points=[[0,0],[0.25,0],[0.5,0],[0.75,0],[1,0],[1,0.25],[1,0.5],[1,0.75],[1,1],[0.75,1],[0.5,1],[0.25,1],[0,1],[0,0.75],[0,0.5],[0,0.25]];outlineConnect=0;gradientColor=none;html=1;whiteSpace=wrap;fontSize=12;fontStyle=0;container=1;pointerEvents=0;collapsible=0;recursiveResize=0;shape=mxgraph.aws4.group;grIcon=mxgraph.aws4.group_security_group;grStroke=0;strokeColor=#248814;fillColor=#E9F3E6;verticalAlign=top;align=left;spacingLeft=30;fontColor=#248814;dashed=0;shadow=1;" vertex="1" parent="1">
          <mxGeometry x="494" y="790" width="560" height="240" as="geometry" />
        </mxCell>
        <mxCell id="OvrC1PLos7UP8C3GgJW_-50" value="" style="sketch=0;outlineConnect=0;fontColor=#232F3E;gradientColor=none;fillColor=#8C4FFF;strokeColor=none;dashed=0;verticalLabelPosition=bottom;verticalAlign=top;align=center;html=1;fontSize=12;fontStyle=0;aspect=fixed;pointerEvents=1;shape=mxgraph.aws4.nat_gateway;" vertex="1" parent="OvrC1PLos7UP8C3GgJW_-27">
          <mxGeometry x="46" y="100" width="78" height="78" as="geometry" />
        </mxCell>
        <mxCell id="OvrC1PLos7UP8C3GgJW_-28" value="Jira-Dev-Private-C&lt;div&gt;168.1.5.0/24&lt;/div&gt;" style="points=[[0,0],[0.25,0],[0.5,0],[0.75,0],[1,0],[1,0.25],[1,0.5],[1,0.75],[1,1],[0.75,1],[0.5,1],[0.25,1],[0,1],[0,0.75],[0,0.5],[0,0.25]];outlineConnect=0;gradientColor=none;html=1;whiteSpace=wrap;fontSize=12;fontStyle=0;container=1;pointerEvents=0;collapsible=0;recursiveResize=0;shape=mxgraph.aws4.group;grIcon=mxgraph.aws4.group_security_group;grStroke=0;strokeColor=#147EBA;fillColor=#E6F2F8;verticalAlign=top;align=left;spacingLeft=30;fontColor=#147EBA;dashed=0;shadow=1;" vertex="1" parent="1">
          <mxGeometry x="1080" y="785" width="560" height="240" as="geometry" />
        </mxCell>
        <mxCell id="OvrC1PLos7UP8C3GgJW_-53" value="" style="sketch=0;outlineConnect=0;fontColor=#232F3E;gradientColor=none;fillColor=#8C4FFF;strokeColor=none;dashed=0;verticalLabelPosition=bottom;verticalAlign=top;align=center;html=1;fontSize=12;fontStyle=0;aspect=fixed;pointerEvents=1;shape=mxgraph.aws4.route_table;" vertex="1" parent="OvrC1PLos7UP8C3GgJW_-28">
          <mxGeometry x="40" y="82" width="78" height="76" as="geometry" />
        </mxCell>
        <mxCell id="OvrC1PLos7UP8C3GgJW_-29" value="Auto Scaling group" style="points=[[0,0],[0.25,0],[0.5,0],[0.75,0],[1,0],[1,0.25],[1,0.5],[1,0.75],[1,1],[0.75,1],[0.5,1],[0.25,1],[0,1],[0,0.75],[0,0.5],[0,0.25]];outlineConnect=0;gradientColor=none;html=1;whiteSpace=wrap;fontSize=12;fontStyle=0;container=1;pointerEvents=0;collapsible=0;recursiveResize=0;shape=mxgraph.aws4.groupCenter;grIcon=mxgraph.aws4.group_auto_scaling_group;grStroke=1;strokeColor=#D86613;fillColor=none;verticalAlign=top;align=center;fontColor=#D86613;dashed=1;spacingTop=25;" vertex="1" parent="1">
          <mxGeometry x="850" y="130" width="180" height="890" as="geometry" />
        </mxCell>
        <mxCell id="OvrC1PLos7UP8C3GgJW_-30" value="Basion Host" style="sketch=0;points=[[0,0,0],[0.25,0,0],[0.5,0,0],[0.75,0,0],[1,0,0],[0,1,0],[0.25,1,0],[0.5,1,0],[0.75,1,0],[1,1,0],[0,0.25,0],[0,0.5,0],[0,0.75,0],[1,0.25,0],[1,0.5,0],[1,0.75,0]];outlineConnect=0;fontColor=#232F3E;fillColor=#ED7100;strokeColor=#ffffff;dashed=0;verticalLabelPosition=bottom;verticalAlign=top;align=center;html=1;fontSize=12;fontStyle=0;aspect=fixed;shape=mxgraph.aws4.resourceIcon;resIcon=mxgraph.aws4.ec2;shadow=1;" vertex="1" parent="OvrC1PLos7UP8C3GgJW_-29">
          <mxGeometry x="51" y="106" width="78" height="78" as="geometry" />
        </mxCell>
        <mxCell id="OvrC1PLos7UP8C3GgJW_-31" value="&lt;font color=&quot;#ff0000&quot;&gt;Security Group&lt;/font&gt;" style="fillColor=none;strokeColor=#FF0000;verticalAlign=top;fontStyle=0;fontColor=#5A6C86;whiteSpace=wrap;html=1;" vertex="1" parent="OvrC1PLos7UP8C3GgJW_-29">
          <mxGeometry x="25" y="80" width="130" height="130" as="geometry" />
        </mxCell>
        <mxCell id="OvrC1PLos7UP8C3GgJW_-33" value="" style="sketch=0;outlineConnect=0;fontColor=#232F3E;gradientColor=none;fillColor=#8C4FFF;strokeColor=none;dashed=0;verticalLabelPosition=bottom;verticalAlign=top;align=center;html=1;fontSize=12;fontStyle=0;aspect=fixed;pointerEvents=1;shape=mxgraph.aws4.internet_gateway;" vertex="1" parent="1">
          <mxGeometry x="180" y="531" width="78" height="78" as="geometry" />
        </mxCell>
        <mxCell id="OvrC1PLos7UP8C3GgJW_-44" style="edgeStyle=orthogonalEdgeStyle;rounded=0;orthogonalLoop=1;jettySize=auto;html=1;startArrow=classic;startFill=1;dashed=1;" edge="1" parent="1" source="OvrC1PLos7UP8C3GgJW_-36" target="OvrC1PLos7UP8C3GgJW_-33">
          <mxGeometry relative="1" as="geometry" />
        </mxCell>
        <mxCell id="OvrC1PLos7UP8C3GgJW_-36" value="" style="sketch=0;outlineConnect=0;fontColor=#232F3E;gradientColor=none;fillColor=#8C4FFF;strokeColor=none;dashed=0;verticalLabelPosition=bottom;verticalAlign=top;align=center;html=1;fontSize=12;fontStyle=0;aspect=fixed;pointerEvents=1;shape=mxgraph.aws4.route_table;" vertex="1" parent="1">
          <mxGeometry x="320" y="533" width="78" height="76" as="geometry" />
        </mxCell>
        <mxCell id="OvrC1PLos7UP8C3GgJW_-46" value="&lt;font style=&quot;font-size: 15px;&quot;&gt;Internet&amp;nbsp;&lt;/font&gt;&lt;div style=&quot;font-size: 15px;&quot;&gt;&lt;font style=&quot;font-size: 15px;&quot;&gt;Gateway&lt;/font&gt;&lt;/div&gt;" style="text;html=1;align=center;verticalAlign=middle;resizable=0;points=[];autosize=1;strokeColor=none;fillColor=none;" vertex="1" parent="1">
          <mxGeometry x="110" y="510" width="80" height="50" as="geometry" />
        </mxCell>
        <mxCell id="OvrC1PLos7UP8C3GgJW_-47" value="LoadBalancer" style="fillColor=none;strokeColor=#3333FF;verticalAlign=top;fontStyle=0;whiteSpace=wrap;html=1;dashed=1;" vertex="1" parent="1">
          <mxGeometry x="697" y="130" width="130" height="890" as="geometry" />
        </mxCell>
        <mxCell id="OvrC1PLos7UP8C3GgJW_-51" value="" style="sketch=0;outlineConnect=0;fontColor=#232F3E;gradientColor=none;fillColor=#8C4FFF;strokeColor=none;dashed=0;verticalLabelPosition=bottom;verticalAlign=top;align=center;html=1;fontSize=12;fontStyle=0;aspect=fixed;pointerEvents=1;shape=mxgraph.aws4.route_table;" vertex="1" parent="1">
          <mxGeometry x="1120" y="197" width="78" height="76" as="geometry" />
        </mxCell>
        <mxCell id="OvrC1PLos7UP8C3GgJW_-54" value="" style="sketch=0;points=[[0,0,0],[0.25,0,0],[0.5,0,0],[0.75,0,0],[1,0,0],[0,1,0],[0.25,1,0],[0.5,1,0],[0.75,1,0],[1,1,0],[0,0.25,0],[0,0.5,0],[0,0.75,0],[1,0.25,0],[1,0.5,0],[1,0.75,0]];points=[[0,0,0],[0.25,0,0],[0.5,0,0],[0.75,0,0],[1,0,0],[0,1,0],[0.25,1,0],[0.5,1,0],[0.75,1,0],[1,1,0],[0,0.25,0],[0,0.5,0],[0,0.75,0],[1,0.25,0],[1,0.5,0],[1,0.75,0]];outlineConnect=0;fontColor=#232F3E;fillColor=#E7157B;strokeColor=#ffffff;dashed=0;verticalLabelPosition=bottom;verticalAlign=top;align=center;html=1;fontSize=12;fontStyle=0;aspect=fixed;shape=mxgraph.aws4.resourceIcon;resIcon=mxgraph.aws4.systems_manager;" vertex="1" parent="1">
          <mxGeometry x="910" y="1140" width="78" height="78" as="geometry" />
        </mxCell>
      </root>
    </mxGraphModel>
  </diagram>
</mxfile>
